<?xml version="1.0" encoding="UTF-8"?>
<svg version="1.1" viewBox="0 0 2048 1792" width="1280" height="1280" xmlns="http://www.w3.org/2000/svg">
<path transform="translate(903,1010)" d="m0 0h10l225 20 132 12 12 2 55 19 28 10 30 10 40 14 44 15 98 34 104 36 63 22v2l-540 11-18-12-32-22-23-16-25-17-19-13-32-22-23-16-31-21-16-11-22-15-48-33-12-8z" fill="#D2E0F2"/>
<path transform="translate(1729,198)" d="m0 0 3 1-9 10-10 13-12 15-11 14-13 16-11 14-13 16-11 14-13 16-11 14-13 16-11 14-13 16-11 14-12 15-11 14-13 16-11 14-14 17-13 17-10 12-11 14-13 16-11 14-13 16-8 10-11 14-13 16-4 5-18-2-274-40 2-4 13-9 19-14 36-26 19-14 18-13 19-14 36-26 38-28 36-26 10-6 15-8 46-23 38-20 46-23 19-10 22-11 19-10 24-12 19-10 28-14 19-10 22-11 19-10 32-16z" fill="#B1C2E6"/>
<path transform="translate(3,428)" d="m0 0 37 4 278 27 92 9 17 3 84 20 88 21 117 28 2 2-13 8-29 17-26 15-27 16-26 15-106 62-24 14-3 1-46-26-50-28-24-14-24-13-69-39-25-14-23-13-25-14-23-13-25-14-23-13-25-14-23-13-25-14-23-13-8-5z" fill="#B1C2E6"/>
<path transform="translate(1082,598)" d="m0 0 3 3 6 11 17 28 19 32 34 56 19 32 17 28 57 95 17 28 19 32 34 56 13 22 11 18 2 4-9-3-28-11-48-19-96-38-197-78-2-1 1-6 20-53 15-39 16-42 18-47 16-42 21-55 4-10z" fill="#D2E0F2"/>
<path transform="translate(1109,584)" d="m0 0 34 5 113 18 125 20 9 2v21l-16 366-1 26-4-4-16-28-14-24-14-25-10-17-13-23-14-24-14-25-10-17-13-23-15-26-14-24-13-23-12-21-30-52-28-49-30-52z" fill="#E8F4FC"/>
<path transform="translate(764,560)" d="m0 0 3 1 7 8 10 11 7 8 11 12 7 8 11 12 18 20 11 12 7 8 9 10 10 11 7 8 11 12 18 20 11 12 7 8 9 10 10 11 7 8 12 13 2 4-48 18-43 16-161 60-35 13-46 17-11 4 3-9 15-39 13-33 20-51 15-38 40-102 15-38 17-44z" fill="#E8F4FC"/>
<path transform="translate(739,560)" d="m0 0 3 1-9 21-18 45-13 32-17 42-22 54-20 50-14 34-21 52-8 20-1 3h-2l-26-48-30-56-12-22-30-56-13-24-1-3 18-10 24-14 25-14 105-60 25-14 24-14 27-15z" fill="#D2DFF1"/>
<path transform="translate(858,996)" d="m0 0 4 2 19 14 18 14 19 14 18 14 16 12 13 10 42 32 12 9 21 16 20 15 18 14 19 14 18 14 16 12 17 13v1l-8-1-210-44-66-14-68-14-65-14 1-3 8-7 7-8 16-16 1-2h2l2-4 28-28 7-8 22-22 7-8 24-24z" fill="#D2E0F2"/>
<path transform="translate(968,809)" d="m0 0 1 3-7 18-20 53-6 12-24 24-7 8-26 26-7 8-12 12h-15l-125-8-8 7-24 24-11-7-16-12-19-13-15-11-2-1v-2l37-15 46-19 131-54 83-34 44-18z" fill="#D2E0F2"/>
<path transform="translate(747,1339)" d="m0 0h193l-2 5-9 11-13 17-10 13-14 18-10 13-14 18-26 34-28 36-20 26-13 17-9 12h170v26l-223 1 2-5 13-16 9-12 14-18 13-17 14-18 10-13 28-36 13-17 14-18 10-13 14-18 10-13 4-5-141-1v-26z" fill="#B1C2E6"/>
<path transform="translate(1212,1339)" d="m0 0 83 1 12 3 14 7 10 8 8 8 8 13 5 11 4 15 1 9v11l-3 19-6 16-6 10-8 10-9 8-10 6-13 4-12 1-3-1 7 8 9 10 14 15 7 8 14 15 7 8 7 7 4 6-9 9-7 9-4-2-9-9-7-8-15-16-11-12-12-13-11-12-12-13-9-10-13-14v100l-1 1h-25v-245zm25 27-1 1v108h52l12-3 10-6 10-9 7-12 4-14v-21l-4-14-7-12-10-10-12-6-9-2z" fill="#B1C2E6"/>
<path transform="translate(1495,1326)" d="m0 0 3 1 8 20 18 41 20 47 15 35 19 44 23 54 4 9v3l-21 11-3-3-23-53-14-33h-96l-13 31-13 30-12 28-5-2-18-9 1-4 11-26 24-56 23-53 42-98zm0 65-6 13-14 33-15 35-1 3h74l-10-24-16-37-10-23z" fill="#B1C2E6"/>
<path transform="translate(602,1326)" d="m0 0h2l13 30 63 147 13 30 18 42 1 5-21 11-3-3-15-34-20-47-2-5h-96l-23 54-15 35-5-2-18-9 1-5 23-53 39-91 13-30 24-56zm0 64-36 84v1h74l-10-24-23-53-4-8z" fill="#B1C2E6"/>
<path transform="translate(975,1339)" d="m0 0 25 1 1 167 4 15 8 16 10 11 12 8 15 5 16 1 12-2 11-5 11-7 10-11 8-16 3-11 1-6 1-165 4-1 21 1 1 2-1 167-3 15-5 14-8 15-9 11-11 10-14 8-12 5-14 3h-21l-14-3-15-6-12-8-12-11-10-14-7-14-4-13-2-10-1-21v-149z" fill="#B2C3E6"/>
<path transform="translate(730,991)" d="m0 0 92 4 7 1-6 7-14 15-22 22-7 8-36 36-7 8-28 28-2 3-5-1-43-18-44-18v-3l14-11 17-14 17-13 17-14 14-11 16-13 10-8z" fill="#D2E0F2"/>
<path transform="translate(950,915)" d="m0 0 5 1 49 18 192 72 5 3-3 1-13-2-133-13-162-16-6-1 4-5 8-7 8-8 8-7 7-7 8-7 17-16z" fill="#E8F4FC"/>
<path transform="translate(587,1101)" d="m0 0 7 1 36 16 16 7 2 3h-116v-2l29-13z" fill="#B2C3E6"/>
<path transform="translate(679,1661)" d="m0 0h7l1 27 8-7 7-2 9 1 8 4 6 8 2 6v11l-3 8-7 8-7 3h-12l-6-3-5-5-1 8-7-1zm18 25-5 3-5 7-1 4v9l3 6 5 5 4 2h11l7-5 3-6v-14l-4-7-6-4z" fill="#BABFC6"/>
<path transform="translate(1375,1661)" d="m0 0h7l1 26 8-6 6-2 10 1 7 4 6 7 3 10-1 11-4 8-7 6-5 2h-12l-8-4-4-4v7l-4 1-3-1zm18 25-6 4-4 5-1 3v12l4 7 5 4 3 1h10l6-4 4-5 1-3v-12l-3-6-6-5-2-1z" fill="#B9BEC5"/>
<path transform="translate(1087,1661)" d="m0 0h7v66l-5 1-2-1v-7l-8 6-4 2h-12l-8-4-6-7-3-10 1-11 4-8 8-7 7-2 10 1 9 6 1 1zm-18 24-7 2-5 5-3 5v14l4 6 5 4 2 1h10l8-5 4-7v-12l-4-7-7-5z" fill="#B9BEC4"/>
<path transform="translate(1120,1680)" d="m0 0h15l6 3 5 6 2 6v32l-5 1-2-1-1-5-6 5-3 1h-14l-7-4-4-7v-7l4-7 8-4 6-1h8l9 2-2-8-4-4-2-1h-12l-9 2-1-1v-5zm6 23-8 2-4 4-1 6 3 5 5 3h9l6-3 5-6v-8l-5-2z" fill="#BABFC6"/>
<path transform="translate(899,1679)" d="m0 0 11 1 8 4 7 9 2 6v9l-4 10-7 7-7 3h-14l-8-4-7-8-2-5v-14l4-8 5-5 7-4zm2 6-9 3-5 6-2 4v12l6 9 6 3h11l6-4 4-5 1-2v-14l-4-6-5-4z" fill="#BABEC5"/>
<path transform="translate(1156,1680)" d="m0 0h8l4 8 12 29h2l8-22 5-13 2-2h7l-2 6-18 44-6 9-5 3h-11l-3-1v-5l4-1h9l4-5-1-7-16-36-3-5z" fill="#BABEC5"/>
<path transform="translate(1318,1680)" d="m0 0h6l1 1 1 32 2 6 5 2h9l7-4 2-4 1-33h7v47l-5 1-2-1 1-6-9 6-3 1h-11l-6-3-4-4-2-5z" fill="#B9BDC4"/>
<path transform="translate(775,1679)" d="m0 0 11 1 9 4-2 6-8-3-8-1-6 2-1 6 5 4 16 6 5 5v10l-3 5-7 4h-13l-10-4-2-1 1-6 6 2 5 2 9 1 6-3 1-6-3-3-17-6-5-4-2-5 1-7 5-6z" fill="#BABEC5"/>
<path transform="translate(1260,1679)" d="m0 0h7l9 3 6 5-2 4-3 1-8-5-7-1-8 3-5 6-1 3v12l4 7 7 4h10l7-4 5-1 1 5-8 6-3 1h-14l-7-3-7-7-3-6-1-10 2-8 6-9 6-4z" fill="#BABFC6"/>
<path transform="translate(811,1666)" d="m0 0h7v14h15v6h-15l1 32 3 3h11v5l-3 2h-11l-5-3-3-5v-34h-6l-1-5 6-1z" fill="#B9BDC4"/>
<path transform="translate(1295,1661)" d="m0 0h7v66l-4 1-3-1z" fill="#B8BCC2"/>
<path transform="translate(869,1679)" d="m0 0 3 1v7l-10 3-5 4-3 6-1 23v4l-3 1-4-1-1-46 1-1h6l1 2v8l4-5 8-5z" fill="#BABEC5"/>
<path transform="translate(741,1680)" d="m0 0h6l1 1v46l-6 1-1-1-1-41v-5z" fill="#BABFC7"/>
<path transform="translate(987,1697)" d="m0 0h5l5 5v6l-5 5-7-1-3-5 1-6z" fill="#B9BEC4"/>
<path transform="translate(741,1662)" d="m0 0h7v8h-7l-1-1v-6z" fill="#BBC0C8"/>
<path transform="translate(1363,1027)" d="m0 0 3 1 4 6 2-2 1 2v8l-4-4z" fill="#FAFCFD"/>
</svg>
