<?xml version="1.0" encoding="UTF-8"?>
<svg version="1.1" viewBox="0 0 2048 1792" width="1280" height="1280" xmlns="http://www.w3.org/2000/svg">
<path transform="translate(756,652)" d="m0 0h483l-3 9-8 18-11 21-14 21-10 13-12 14-14 14-11 9-13 10-17 11-20 11-19 8-35 10-30 7-29 5-29 3h-39l-23-3-21-5-17-6-17-8-15-10-11-9-16-16-11-15-9-15-10-21-7-19-7-26-5-27z" fill="#079C9F"/>
<path transform="translate(1061,863)" d="m0 0h42l3 1 1 3v69l16-6 9-2 18-1 15 2 11 4 11 6 11 10 7 11 5 12 2 9 1 10v105l-3 2h-43l-3-2-1-104-4-11-4-5-10-5-12-1-12 2-14 6v101l-1 18-3 1h-43l-2-1v-233z" fill="#079C9F"/>
<path transform="translate(1944,928)" d="m0 0h26l18 4 11 5 11 6 10 8 10 10 9 14 6 14 3 13v25l-2 7-1 1h-126l6 9 7 7 14 7 5 1h16l16-4 11-6 4-3 5 2 26 26-1 4-9 7-15 8-18 6-18 3h-21l-15-3-14-5-11-6-9-7-10-9-10-14-7-15-3-11-1-7v-21l4-17 4-10 9-14 9-10 9-8 15-9 13-5zm6 42-12 4-9 7-8 9-2 5h76l-2-5-6-8-9-7-10-4-4-1z" fill="#079C9F"/>
<path transform="translate(498,928)" d="m0 0h26l17 4 16 7 12 8 12 11 8 11 8 16 4 15v30l-3 5h-125l4 7 7 8 10 6 11 3h16l15-4 13-7 4-2 10 8v2l4 2 14 14 2 4-5 5-11 7-17 8-21 5-8 1h-20l-16-3-13-5-13-7-10-8-10-10-9-14-5-11-4-14-1-9v-13l3-16 5-14 8-13 9-11 8-7 14-9 11-5 13-4zm6 42-10 3-8 5-8 7-5 7v3h76l-2-5-9-10-8-6-13-4z" fill="#075D5D"/>
<path transform="translate(77,928)" d="m0 0h27l14 3 15 6 13 8 11 9 9 11 8 14 5 14 2 10v24l-4 16-5 12-7 11-9 10-9 8-13 8-15 6-12 3-7 1h-20l-18-4-13-5-15-9-13-12-10-14-6-13-5-18v-24l5-18 8-16 10-13 11-10 11-7 12-6 14-4zm6 43-11 4-9 6-7 8-5 10-2 7v18l4 11 7 11 9 7 11 5 6 1h10l13-4 11-8 7-9 4-9 2-11-1-14-5-12-6-8-8-7-8-4-7-2z" fill="#075D5D"/>
<path transform="translate(1338,928)" d="m0 0h27l17 4 14 6 12 8 12 11 8 10 8 15 4 13 2 12v15l-2 13-5 15-9 16-12 13-14 10-12 6-15 5-13 2h-19l-16-3-15-6-11-6-11-9-8-8-7-10-8-16-4-16-1-16 2-15 5-15 6-12 9-12 10-10 10-7 16-8 14-4zm5 43-11 4-9 7-7 8-6 13-1 6v11l3 12 6 11 10 9 10 5 8 2h11l10-3 10-6 8-8 6-12 2-7v-16l-3-10-6-11-10-9-11-5-4-1z" fill="#079C9F"/>
<path transform="translate(702,928)" d="m0 0h26l14 3 12 5 13 9 10 11 8 16 3 13 1 8v103l-4 2h-43l-2-4-6 2-13 4-14 2h-19l-13-3-12-6-10-9-7-10-4-11-1-4v-17l3-11 6-11 12-12 12-7 15-5 9-2 9-1 33-1-3-8-4-6-9-5-4-1h-21l-11 4-11 7-4 2-8-7-20-20 2-4 10-9 16-9 14-5zm18 101-15 2-12 6-3 5-1 6 3 6 6 5 6 2h12l15-4 9-4 1-23-1-1z" fill="#075D5D"/>
<path transform="translate(920,928)" d="m0 0h23l16 4 13 7 12 11 8 13 5 14 1 6 1 19v91l-1 4-3 1h-43l-2-2-1-102-3-10-6-8-8-4-3-1h-17l-12 4-7 5h-2l1 3-1 114-3 1h-43l-2-1v-164l1-1h46l1 1v6l14-7z" fill="#075D5D"/>
<path transform="translate(1488,932)" d="m0 0h46l1 1 1 99 2 10 4 8 6 5 7 3h18l11-4 8-5 1-116 1-1h47v165l-3 1h-43l-2-2v-5l-16 7-12 3-7 1h-11l-16-3-14-6-9-7-7-7-8-13-5-16-1-7v-110z" fill="#079C9F"/>
<path transform="translate(756,652)" d="m0 0h147l5 21 2 17v11l-3 19-5 15-7 13-9 12-15 15-14 10-15 9-12 6-4-1-8-7-13-13-11-15-9-15-10-21-7-19-7-26-5-27z" fill="#075D5D"/>
<path transform="translate(1054,718)" d="m0 0h25l18 3 18 6 15 8 14 10 13 12 6 6-2 4-15 12-15 10-18 10-16 8-17 6-28 8-30 7-29 5-29 3h-14l-1-1v-13l2-17 5-17 8-16 10-13 10-10 12-9 13-8 21-9 16-4z" fill="#079C9F"/>
<path transform="translate(1747,928)" d="m0 0h25l14 3 14 6 10 7 10 9 4 5-1 4-23 23-3 2-4-1-11-10-10-5-4-1h-15l-7 3-4 3v6l9 6 16 6 18 6 15 8 10 8 8 9 5 10 2 8v13l-4 13-7 11-10 9-15 8-15 4-6 1h-23l-17-4-16-8-8-6-11-11-1-4 7-8 7-7h2v-2l8-7 3-3 5 1 9 9 11 6 8 2h13l9-4 2-5-4-6-16-7-24-8-16-8-12-11-7-9-4-10-1-5v-13l4-13 7-11 11-10 16-8z" fill="#079C9F"/>
<path transform="translate(300,928)" d="m0 0h27l18 4 14 6 13 9 10 10-2 5-25 25-4 3-4-2-8-8-8-5-10-3h-14l-11 4-9 6-7 8-6 13-1 6v12l4 13 6 10 8 7 10 5 14 2 11-2 12-6 7-6 5-6 5 2 29 29-2 5-11 10-13 8-15 6-20 4h-20l-16-3-15-6-11-6-11-9-7-7-10-15-5-12-4-15-1-17 2-16 6-18 9-15 11-12 8-7 14-8 16-6z" fill="#075D5D"/>
<path transform="translate(1032,652)" d="m0 0h207l-3 9-8 18-11 21-14 21-10 13-12 14-7 7-4-1-12-12-13-10-14-9-18-8-17-5-12-2h-35l-4-24-6-18-7-12z" fill="#079C9F"/>
<path transform="translate(970,652)" d="m0 0h62l8 14 6 18 3 19v5l2-1h33l20 4 16 6 16 8 14 10 11 9 12 12-9 8-7-6-8-8-13-10-13-8-13-6-18-5-13-2h-25l-17 3-15 5-16 8-16 10-15 14-8 10-8 14-6 18-2 10-1 11v14h-10l-1-4v-22l3-18 4-12 8-15 10-13 11-11 13-10 3-2 1-4v-26l-4-16-8-17-10-13z" fill="#FEFEFE"/>
<path transform="translate(1059,763)" d="m0 0h22l16 4 13 7 11 9 6 8-14 8-16 8-17 6-28 8-30 7-29 5h-3l1-12 4-14 6-11 11-12 14-10 18-8z" fill="#079C9F"/>
<path transform="translate(1086,1142)" d="m0 0h21v90h-21l-1-2 1-6-9 7-5 2h-17l-10-5-7-8-4-10-1-4v-13l2-9 4-8 5-5 7-5 7-2h11l9 3 7 6zm-17 37-8 3-4 5-2 5v14l3 6 5 5 3 1h9l6-4 4-6 1-4v-11l-4-8-6-5z" fill="#1F2323"/>
<path transform="translate(977,1164)" d="m0 0h15l10 3 10 6 6 8 4 10v16l-4 10-9 10-10 5-11 2-16-1-12-6-8-8-4-8-2-13 2-10 5-10 7-7 9-5zm4 15-8 4-4 6-1 3v14l5 8 6 4 7 1 8-3 6-7 1-4v-12l-4-8-5-4-5-2z" fill="#1E2525"/>
<path transform="translate(1434,1164)" d="m0 0h14l13 4 8 6 6 7 4 11v13l-4 11-6 8-9 6-8 3-16 1-10-2-11-6-7-8-4-9-1-6v-8l2-9 7-11 8-6 9-4zm4 15-7 3-5 6-2 6v9l3 8 6 6 10 2 8-3 5-6 2-7v-9l-3-7-4-5-7-3z" fill="#1E2525"/>
<path transform="translate(891,1164)" d="m0 0h14l13 4 8 6 5 6 4 9 1 4v12l-4 11-6 8-9 6-8 3-16 1-10-2-11-6-7-8-4-9-1-14 2-9 6-10 9-7 9-4zm4 15-7 3-5 6-2 6v9l3 8 5 5 3 2 7 1 9-3 5-6 2-7v-8l-3-8-4-5-7-3z" fill="#1E2525"/>
<path transform="translate(683,1164)" d="m0 0h13l10 3 8 6 6 8 3 9 1 14-1 1-38 1-10-1 4 8 6 4 3 1h9l10-4 4-1 9 9-2 4-12 6-10 2h-10l-12-3-9-6-7-8-4-11v-14l4-11 7-9 10-6zm1 15-6 5-3 6 1 4h26l1-4-3-6-4-4-2-1z" fill="#1E2525"/>
<path transform="translate(754,1165)" d="m0 0h22l10 3 9 8 3 7 1 48-1 1h-20v-6l-7 5-6 2h-17l-8-4-5-6-2-4v-12l4-8 9-6 9-2h12l10 2-1-7-1-3-7-2h-11l-9 2-5-1-5-12 7-3zm11 37-9 3-3 5 1 6 4 4 9 1 7-3 4-4 1-6-2-4z" fill="#1E2525"/>
<path transform="translate(1235,1164)" d="m0 0h14l10 3 9 7 6 10 2 7v14h-48l4 8 6 4 3 1h9l8-3 2-2 4 1 9 8-1 3-10 6-6 2-8 1h-9l-12-3-8-5-5-5-5-8-2-6v-16l4-10 6-8 9-6zm2 15-7 6-2 5 1 4h26l1-3-4-8-5-4z" fill="#1E2525"/>
<path transform="translate(903,652)" d="m0 0h16l3 15 2 21v10l-2 18-4 15-6 15-8 13-8 10-9 10-12 10-15 10-16 9-5 1-11-8 4-3 19-10 16-11 12-11 8-8 10-15 7-16 4-17 1-9v-11l-2-17-4-17z" fill="#FEFEFE"/>
<path transform="translate(1311,1164)" d="m0 0 14 1 13 4 3 2-2 5-6 8-6-2-5-2h-12l-3 3 5 5 19 8 8 6 3 5 1 9-4 9-8 6-7 2h-21l-14-5-5-3 2-4 7-9 15 6h12l3-3-2-4-22-9-8-6-3-5-1-8 2-6 4-6 6-4z" fill="#1E2727"/>
<path transform="translate(613,1164)" d="m0 0 14 1 10 3 6 3-2 4-5 9-5-1-8-3h-12l-1 1v5l11 5 16 8 6 6 2 8-2 8-4 6-10 5-3 1h-21l-12-4-7-4 2-5 6-8 5 2 11 4h12l2-2-1-5-15-6-12-6-5-6-2-5v-7l4-8 6-5 8-3z" fill="#1E2626"/>
<path transform="translate(836,1141)" d="m0 0h11l7 1 1 1v14h-14l-2 9h16v14l-15 1-1 51h-21v-52l-5 1-3-1v-14h8v-10l4-8 5-4z" fill="#1F2323"/>
<path transform="translate(1358,1148)" d="m0 0h21v17h15l1 1v14h-16l1 36 9 1h6v12l-4 3-4 1h-18l-8-5-3-6-1-4v-37l-8-1v-14l2-1h6v-16z" fill="#1E2727"/>
<path transform="translate(979,652)" d="m0 0h40l9 14 5 12 4 15 2 12v5l-20 5-15 7h-2v-24l-3-15-5-12-9-12z" fill="#079C9F"/>
<path transform="translate(1250,555)" d="m0 0 15 2 8 5 5 6 3 8 1 4v16l-4 13-6 11-11 13-14 11-2 1 1-10 3-19 2-26-1-24-1-10z" fill="#079C9F"/>
<path transform="translate(1062,753)" d="m0 0h21l14 3 12 5 11 7 14 14 2 4-9 5-9-10-13-9-11-5-13-3h-22l-15 3-18 8-14 10-7 7-7 11-5 13-3 17-10 1 1-14 4-16 6-12 8-10 7-7 14-9 16-7 13-4z" fill="#FEFEFE"/>
<path transform="translate(1196,1164)" d="m0 0 5 1v18l-12 3-5 3-4 8-1 35h-21l-1-1v-64l1-2 21 1v9h2l2-4 6-5z" fill="#1E2626"/>
<path transform="translate(822,684)" d="m0 0h10l7 4 4 6 1 7-3 8-7 6-2 1h-10l-7-4-4-6-1-7 2-7 5-5z" fill="#FEFEFE"/>
</svg>
